<?xml version="1.0" encoding="UTF-8" standalone="no"?>
<svg
   xmlns:dc="http://purl.org/dc/elements/1.1/"
   xmlns:cc="http://creativecommons.org/ns#"
   xmlns:rdf="http://www.w3.org/1999/02/22-rdf-syntax-ns#"
   xmlns:svg="http://www.w3.org/2000/svg"
   xmlns="http://www.w3.org/2000/svg"
   xmlns:sodipodi="http://sodipodi.sourceforge.net/DTD/sodipodi-0.dtd"
   xmlns:inkscape="http://www.inkscape.org/namespaces/inkscape"
   width="21"
   height="21"
   viewBox="0 0 21 21"
   version="1.1"
   id="svg4"
   sodipodi:docname="cart-icon-hover.svg"
   inkscape:version="0.92.4 (5da689c313, 2019-01-14)">
  <metadata
     id="metadata10">
    <rdf:RDF>
      <cc:Work
         rdf:about="">
        <dc:format>image/svg+xml</dc:format>
        <dc:type
           rdf:resource="http://purl.org/dc/dcmitype/StillImage" />
        <dc:title></dc:title>
      </cc:Work>
    </rdf:RDF>
  </metadata>
  <defs
     id="defs8" />
  <sodipodi:namedview
     pagecolor="#ffffff"
     bordercolor="#666666"
     borderopacity="1"
     objecttolerance="10"
     gridtolerance="10"
     guidetolerance="10"
     inkscape:pageopacity="0"
     inkscape:pageshadow="2"
     inkscape:window-width="1920"
     inkscape:window-height="1017"
     id="namedview6"
     showgrid="false"
     inkscape:zoom="11.238095"
     inkscape:cx="10.5"
     inkscape:cy="10.5"
     inkscape:window-x="-8"
     inkscape:window-y="-8"
     inkscape:window-maximized="1"
     inkscape:current-layer="svg4" />
  <path
     d="M11.088,6.25A3.659,3.659,0,0,0,7.558,9.332L6.852,13.25H6.037a.811.811,0,0,0-.638.317.906.906,0,0,0-.174.722l1.782,9.879a3.658,3.658,0,0,0,3.529,3.082H20.882a3.657,3.657,0,0,0,3.529-3.082l1.782-9.879a.905.905,0,0,0-.174-.722.811.811,0,0,0-.638-.317h-.815L23.86,9.332A3.659,3.659,0,0,0,20.331,6.25Zm0,1.75h9.243a1.957,1.957,0,0,1,1.9,1.658v0l.647,3.59H8.541l.647-3.59v0A1.957,1.957,0,0,1,11.088,8ZM7.04,15H7.4a.8.8,0,0,0,.269,0H23.75a.773.773,0,0,0,.265,0h.363l-1.594,8.842a1.959,1.959,0,0,1-1.9,1.658H10.536a1.959,1.959,0,0,1-1.9-1.658v0Zm3.948,1.737a.814.814,0,0,0-.607.306.91.91,0,0,0-.193.678l.553,5.25a.87.87,0,0,0,.485.728.793.793,0,0,0,.839-.1.9.9,0,0,0,.321-.823l-.551-5.25A.848.848,0,0,0,10.988,16.737Zm3.326,0a.856.856,0,0,0-.817.888v5.25a.886.886,0,0,0,.412.768.788.788,0,0,0,.835,0,.885.885,0,0,0,.41-.768v-5.25a.9.9,0,0,0-.242-.632A.819.819,0,0,0,14.314,16.737Zm2.763,0a.856.856,0,0,0-.814.888v5.25a.885.885,0,0,0,.41.768.788.788,0,0,0,.835,0,.886.886,0,0,0,.412-.768v-5.25a.907.907,0,0,0-.245-.632A.812.812,0,0,0,17.077,16.737Zm3.328,0a.848.848,0,0,0-.823.792l-.551,5.25a.9.9,0,0,0,.321.823.793.793,0,0,0,.839.1.87.87,0,0,0,.485-.728l.553-5.25a.912.912,0,0,0-.2-.689A.817.817,0,0,0,20.405,16.737Zm0,0"
     transform="translate(-5.209 -6.25)"
     fill="#fff"
     id="path2"
     style="fill:#fbd607;fill-opacity:1" />
</svg>
