<svg xmlns="http://www.w3.org/2000/svg" width="11.074" height="13.843" viewBox="0 0 11.074 13.843"><path d="M8.153,2l-.692.692H4.692a.692.692,0,1,0,0,1.384h9.69a.692.692,0,0,0,0-1.384H11.613L10.921,2ZM4.692,5.461v9a1.388,1.388,0,0,0,1.384,1.384H13a1.388,1.388,0,0,0,1.384-1.384v-9ZM7.745,7.824a.687.687,0,0,1,.488.2l1.3,1.3,1.3-1.3A.69.69,0,1,1,11.818,9l-1.3,1.3,1.3,1.3a.69.69,0,0,1-.976.976l-1.3-1.3-1.3,1.3a.69.69,0,0,1-.976-.976l1.3-1.3L7.257,9a.689.689,0,0,1,.488-1.177Z" transform="translate(-4 -2)" fill="#FBD607"/></svg>