<svg xmlns="http://www.w3.org/2000/svg" width="30" height="30" viewBox="0 0 30 30"><path d="M7.571,4A3.582,3.582,0,0,0,4,7.57V30.42a3.582,3.582,0,0,0,3.571,3.57H19.594a.714.714,0,0,0,.233,0H23.88a.715.715,0,0,0,.233,0h6.316A3.582,3.582,0,0,0,34,30.42V7.57A3.582,3.582,0,0,0,30.429,4Zm0,1.428H30.429A2.132,2.132,0,0,1,32.571,7.57V30.42a2.132,2.132,0,0,1-2.143,2.142H24.714v-10h2.729l1-5H24.714V16.139c0-.4.038-.429.172-.516a2.788,2.788,0,0,1,1.257-.2h2.143V11.4l-.407-.194A9.856,9.856,0,0,0,24,10.427a4.7,4.7,0,0,0-3.772,1.7A6.348,6.348,0,0,0,19,16.139v1.428H16.857v5H19v10H7.571A2.132,2.132,0,0,1,5.429,30.42V7.57A2.132,2.132,0,0,1,7.571,5.428ZM24,11.855a7.519,7.519,0,0,1,2.857.5V14h-.714a3.6,3.6,0,0,0-2.035.428,2.018,2.018,0,0,0-.822,1.714V19H26.7l-.428,2.142H23.286V32.562H20.429V21.137H18.286V19h2.143V16.139a4.983,4.983,0,0,1,.915-3.124A3.152,3.152,0,0,1,24,11.855Z" transform="translate(-4 -4)" fill="#f3f3f3"/></svg>