<svg xmlns="http://www.w3.org/2000/svg" width="30" height="30" viewBox="0 0 30 30"><path d="M7.571,4A3.582,3.582,0,0,0,4,7.571V30.429A3.582,3.582,0,0,0,7.571,34H30.429A3.582,3.582,0,0,0,34,30.429V7.571A3.582,3.582,0,0,0,30.429,4Zm0,1.429H30.429a2.132,2.132,0,0,1,2.143,2.143V30.429a2.132,2.132,0,0,1-2.143,2.143H7.571a2.132,2.132,0,0,1-2.143-2.143V7.571A2.132,2.132,0,0,1,7.571,5.429Zm3.571,3.58a3.085,3.085,0,0,0-2.007.672,2.355,2.355,0,0,0-.841,1.8,2.635,2.635,0,0,0,2.628,2.476h0a.706.706,0,0,0,.218.038,2.674,2.674,0,0,0,2.849-2.515q0-.019,0-.038A2.705,2.705,0,0,0,11.143,9.008Zm0,1.412c.994,0,1.387.444,1.43,1.074-.009.612-.387,1.085-1.43,1.085-.99,0-1.437-.507-1.437-1.1a.876.876,0,0,1,.338-.716A1.687,1.687,0,0,1,11.143,10.42ZM9,14.714a.714.714,0,0,0-.714.714V29A.714.714,0,0,0,9,29.714h4.286A.714.714,0,0,0,14,29V15.429a.714.714,0,0,0-.714-.714Zm6.429,0a.714.714,0,0,0-.714.714V29a.714.714,0,0,0,.714.714h4.286A.714.714,0,0,0,20.429,29V21.857a2.736,2.736,0,0,1,.446-1.568,1.431,1.431,0,0,1,1.327-.605,1.546,1.546,0,0,1,1.359.632A2.644,2.644,0,0,1,24,21.857V29a.714.714,0,0,0,.714.714H29A.714.714,0,0,0,29.714,29V21.33a6.981,6.981,0,0,0-1.7-4.925,5.622,5.622,0,0,0-4.148-1.691,6.235,6.235,0,0,0-3.437,1.017v-.3a.714.714,0,0,0-.714-.714ZM9.714,16.143h2.857V28.286H9.714Zm6.429,0H19v1.115a.714.714,0,0,0,1.285.43,4.487,4.487,0,0,1,3.581-1.544,4.144,4.144,0,0,1,3.111,1.244,5.528,5.528,0,0,1,1.309,3.943v6.956H25.429V21.857a3.979,3.979,0,0,0-.721-2.4,3.108,3.108,0,0,0-2.48-1.207,3,3,0,0,0-2.5,1.187A4.045,4.045,0,0,0,19,21.857v6.429H16.143Z" transform="translate(-4 -4)" fill="#f3f3f3"/></svg>