<svg xmlns="http://www.w3.org/2000/svg" width="12.48" height="18.721" viewBox="0 0 12.48 18.721"><path d="M17.24,4A6.237,6.237,0,0,0,11,10.24c0,2.855,1.5,5.908,2.965,8.275A34.48,34.48,0,0,0,16.9,22.569a.447.447,0,0,0,.676-.005,36.061,36.061,0,0,0,2.937-4.1c1.468-2.384,2.963-5.431,2.963-8.223A6.237,6.237,0,0,0,17.24,4Zm0,.891a5.328,5.328,0,0,1,5.349,5.349c0,2.465-1.4,5.436-2.831,7.757a32.339,32.339,0,0,1-2.519,3.566,30.2,30.2,0,0,1-2.516-3.517c-1.429-2.3-2.831-5.269-2.831-7.805A5.328,5.328,0,0,1,17.24,4.891Zm0,2.229a3.12,3.12,0,1,0,3.12,3.12A3.133,3.133,0,0,0,17.24,7.12Zm0,.891a2.229,2.229,0,1,1-2.229,2.229A2.233,2.233,0,0,1,17.24,8.012Zm0,0" transform="translate(-11 -4)" fill="#fbd607"/></svg>