<svg xmlns="http://www.w3.org/2000/svg" width="122.878" height="26.195" viewBox="0 0 122.878 26.195"><path d="M441.6,297.474a.556.556,0,0,1,.219.043.571.571,0,0,1,.179.118.558.558,0,0,1,.12.176.543.543,0,0,1,0,.429.563.563,0,0,1-.12.175.583.583,0,0,1-.179.119.547.547,0,0,1-.219.044.563.563,0,0,1-.522-.339.544.544,0,0,1,0-.429.553.553,0,0,1,.3-.295A.573.573,0,0,1,441.6,297.474Zm0,.984a.411.411,0,0,0,.167-.034.432.432,0,0,0,.135-.7.429.429,0,0,0-.135-.091.418.418,0,0,0-.167-.033.437.437,0,0,0-.17.033.43.43,0,0,0,.17.827Zm.033-.69a.234.234,0,0,1,.152.044.147.147,0,0,1,.053.12.14.14,0,0,1-.043.1.2.2,0,0,1-.121.051l.168.194h-.131l-.156-.192h-.05v.192h-.11v-.513Zm-.127.1V298h.126a.124.124,0,0,0,.069-.017.058.058,0,0,0,.026-.052.057.057,0,0,0-.026-.051.126.126,0,0,0-.069-.017Zm-57.315.416v-5.467a3.242,3.242,0,0,0-3.426-3.462,3.373,3.373,0,0,0-3.061,1.549,3.2,3.2,0,0,0-2.879-1.549,2.88,2.88,0,0,0-2.551,1.294V289.57h-1.9v8.71h1.913v-4.829a2.037,2.037,0,0,1,2.132-2.314c1.257,0,1.9.82,1.9,2.3v4.847h1.913v-4.829a2.054,2.054,0,0,1,2.132-2.314c1.294,0,1.913.82,1.913,2.3v4.847Zm10.678-4.355V289.57h-1.9v1.057a3.3,3.3,0,0,0-2.752-1.276,4.579,4.579,0,0,0,0,9.148,3.3,3.3,0,0,0,2.752-1.276v1.057h1.9Zm-7.052,0a2.637,2.637,0,1,1,2.642,2.788,2.613,2.613,0,0,1-2.642-2.788Zm47.6-4.584a4.907,4.907,0,0,1,1.869.35,4.557,4.557,0,0,1,1.487.964,4.411,4.411,0,0,1,.982,1.451,4.838,4.838,0,0,1,0,3.638,4.41,4.41,0,0,1-.982,1.451,4.557,4.557,0,0,1-1.487.964,5.161,5.161,0,0,1-3.738,0,4.508,4.508,0,0,1-1.483-.964,4.452,4.452,0,0,1-.978-1.451,4.842,4.842,0,0,1,0-3.638,4.451,4.451,0,0,1,.978-1.451,4.51,4.51,0,0,1,1.483-.964A4.908,4.908,0,0,1,435.421,289.341Zm0,1.792a2.827,2.827,0,0,0-1.082.2,2.561,2.561,0,0,0-.864.573,2.671,2.671,0,0,0-.573.882,3.168,3.168,0,0,0,0,2.265,2.666,2.666,0,0,0,.573.882,2.56,2.56,0,0,0,.864.573,2.963,2.963,0,0,0,2.164,0,2.612,2.612,0,0,0,.869-.573,2.642,2.642,0,0,0,.578-.882,3.169,3.169,0,0,0,0-2.265,2.642,2.642,0,0,0-.578-.882,2.61,2.61,0,0,0-.869-.573,2.829,2.829,0,0,0-1.082-.2Zm-30.238,2.792c-.018-2.715-1.695-4.574-4.136-4.574a4.578,4.578,0,0,0,.128,9.148,5.3,5.3,0,0,0,3.572-1.221l-.929-1.4a4.149,4.149,0,0,1-2.533.911,2.419,2.419,0,0,1-2.606-2.132h6.469c.018-.237.036-.474.036-.729Zm-6.487-.765a2.242,2.242,0,0,1,2.314-2.114,2.163,2.163,0,0,1,2.2,2.114Zm15.288-2.9a6.514,6.514,0,0,0-3.553-.911c-2.2,0-3.626,1.057-3.626,2.788,0,1.421,1.057,2.3,3.007,2.569l.893.128c1.039.146,1.531.419,1.531.911,0,.674-.692,1.057-1.986,1.057a4.64,4.64,0,0,1-2.9-.911l-.893,1.476a6.284,6.284,0,0,0,3.772,1.13c2.515,0,3.972-1.185,3.972-2.843,0-1.531-1.148-2.332-3.043-2.606l-.893-.127c-.82-.109-1.476-.273-1.476-.856,0-.638.619-1.021,1.658-1.021a5.615,5.615,0,0,1,2.715.747Zm8.286-.692h-3.1v-2.642h-1.913v2.642h-1.768V291.3h1.768v3.972c0,2.023.783,3.225,3.025,3.225a4.452,4.452,0,0,0,2.369-.674l-.547-1.622a3.5,3.5,0,0,1-1.676.492c-.948,0-1.257-.583-1.257-1.458V291.3h3.1Zm6.558-.219a2.569,2.569,0,0,0-2.3,1.276V289.57h-1.877v8.71h1.895V293.4c0-1.44.62-2.241,1.859-2.241a3.089,3.089,0,0,1,1.185.219l.583-1.786a4.048,4.048,0,0,0-1.349-.237Z" transform="translate(-319.286 -279.807)" fill="#fff"/><g transform="translate(0 0)"><rect width="11.46" height="20.594" transform="translate(15.461 2.8)" fill="#8a8a8a"/><path d="M246.126,283.1a13.074,13.074,0,0,1,5-10.3,13.1,13.1,0,1,0,0,20.594A13.074,13.074,0,0,1,246.126,283.1Z" transform="translate(-229.938 -269.999)" fill="#fff"/><path d="M342.536,327.419V327h.17v-.086h-.433V327h.17v.422Zm.841,0v-.508h-.133l-.153.35-.153-.35h-.133v.508h.094v-.383l.143.331h.1l.143-.331v.384Z" transform="translate(-301.405 -306.206)" fill="#00a2e5"/><path d="M309.375,283.1a13.1,13.1,0,0,1-21.19,10.3,13.1,13.1,0,0,0,0-20.594,13.1,13.1,0,0,1,21.19,10.3Z" transform="translate(-266.994 -270)" fill="#b3b3b3"/></g></svg>