<svg xmlns="http://www.w3.org/2000/svg" width="15.706" height="12.565" viewBox="0 0 15.706 12.565"><path d="M6.552,8A2.561,2.561,0,0,0,4,10.552v7.46a2.561,2.561,0,0,0,2.552,2.552h10.6a2.561,2.561,0,0,0,2.552-2.552v-7.46A2.561,2.561,0,0,0,17.154,8Zm0,1.178h10.6a1.366,1.366,0,0,1,1.374,1.374v.434l-6.675,3.608L5.178,10.986v-.434A1.366,1.366,0,0,1,6.552,9.178ZM5.178,12.325l6.4,3.457a.589.589,0,0,0,.56,0l6.4-3.457v5.687a1.366,1.366,0,0,1-1.374,1.374H6.552a1.366,1.366,0,0,1-1.374-1.374Z" transform="translate(-4 -8)" fill="#fbd607"/></svg>