<svg xmlns="http://www.w3.org/2000/svg" width="147.959" height="26.195" viewBox="0 0 147.959 26.195"><g transform="translate(0 0)"><rect width="11.46" height="20.594" transform="translate(15.461 2.8)" fill="#8a8a8a"/><path d="M206.839,283.1a13.074,13.074,0,0,1,5-10.3,13.1,13.1,0,1,0,0,20.594A13.074,13.074,0,0,1,206.839,283.1Z" transform="translate(-190.651 -269.999)" fill="#fff"/><path d="M270.088,283.1a13.1,13.1,0,0,1-21.19,10.3,13.1,13.1,0,0,0,0-20.594,13.1,13.1,0,0,1,21.19,10.3Z" transform="translate(-227.707 -270)" fill="#b3b3b3"/></g><path d="M344.92,296.778v-5.467a3.242,3.242,0,0,0-3.426-3.462,3.374,3.374,0,0,0-3.061,1.549,3.2,3.2,0,0,0-2.879-1.549A2.88,2.88,0,0,0,333,289.142v-1.075h-1.9v8.71h1.913v-4.829a2.037,2.037,0,0,1,2.132-2.314c1.257,0,1.9.82,1.9,2.3v4.847h1.913v-4.829a2.054,2.054,0,0,1,2.132-2.314c1.294,0,1.913.82,1.913,2.3v4.847Zm28.317-8.71h-3.1v-2.642h-1.913v2.642h-1.768V289.8h1.768v3.972c0,2.023.784,3.225,3.025,3.225a4.453,4.453,0,0,0,2.369-.674l-.547-1.622a3.5,3.5,0,0,1-1.676.492c-.948,0-1.257-.583-1.257-1.458V289.8h3.1Zm16.163-.219a2.569,2.569,0,0,0-2.3,1.276v-1.057h-1.877v8.71h1.9v-4.884c0-1.439.62-2.241,1.859-2.241a3.085,3.085,0,0,1,1.184.219l.583-1.786a4.05,4.05,0,0,0-1.349-.237Zm-24.436.911a6.513,6.513,0,0,0-3.553-.911c-2.2,0-3.626,1.057-3.626,2.788,0,1.421,1.057,2.3,3.006,2.569l.893.128c1.039.146,1.531.419,1.531.911,0,.674-.693,1.057-1.986,1.057a4.641,4.641,0,0,1-2.9-.911l-.893,1.476a6.284,6.284,0,0,0,3.772,1.13c2.515,0,3.972-1.185,3.972-2.843,0-1.531-1.148-2.332-3.043-2.606l-.893-.128c-.82-.109-1.476-.273-1.476-.856,0-.638.619-1.021,1.658-1.021a5.614,5.614,0,0,1,2.715.747Zm50.767-.911a2.569,2.569,0,0,0-2.3,1.276v-1.057h-1.877v8.71h1.895v-4.884c0-1.439.62-2.241,1.859-2.241a3.086,3.086,0,0,1,1.185.219l.583-1.786a4.05,4.05,0,0,0-1.348-.237Zm-24.418,4.574A4.4,4.4,0,0,0,395.96,297a4.562,4.562,0,0,0,3.134-1.039l-.911-1.531a3.827,3.827,0,0,1-2.278.783,2.793,2.793,0,0,1,0-5.576,3.828,3.828,0,0,1,2.278.783l.911-1.531a4.563,4.563,0,0,0-3.134-1.039,4.4,4.4,0,0,0-4.647,4.574Zm17.748,0v-4.355h-1.895v1.057a3.3,3.3,0,0,0-2.752-1.276,4.579,4.579,0,0,0,0,9.148,3.3,3.3,0,0,0,2.752-1.276v1.057h1.895Zm-7.052,0a2.637,2.637,0,1,1,2.642,2.788A2.613,2.613,0,0,1,402.01,292.423Zm-22.868-4.574a4.578,4.578,0,0,0,.128,9.148,5.3,5.3,0,0,0,3.572-1.221l-.929-1.4a4.15,4.15,0,0,1-2.533.911,2.419,2.419,0,0,1-2.606-2.132h6.469c.018-.237.036-.474.036-.729C383.259,289.707,381.583,287.849,379.141,287.849Zm-.036,1.695a2.163,2.163,0,0,1,2.2,2.114h-4.519A2.242,2.242,0,0,1,379.1,289.544Zm47.541,2.879v-7.854h-1.9v4.555A3.3,3.3,0,0,0,422,287.849,4.579,4.579,0,0,0,422,297a3.3,3.3,0,0,0,2.751-1.276v1.057h1.9Zm2.215,3.551a.556.556,0,0,1,.219.043.569.569,0,0,1,.179.118.558.558,0,0,1,.12.176.543.543,0,0,1,0,.429.561.561,0,0,1-.12.175.583.583,0,0,1-.179.119.546.546,0,0,1-.219.044.563.563,0,0,1-.522-.339.545.545,0,0,1,0-.429.553.553,0,0,1,.3-.295.572.572,0,0,1,.223-.044Zm0,.984a.413.413,0,0,0,.167-.034.441.441,0,0,0,.135-.092.431.431,0,0,0-.135-.7.416.416,0,0,0-.167-.033.43.43,0,0,0-.17.826.429.429,0,0,0,.17.034Zm.033-.69a.234.234,0,0,1,.153.044.147.147,0,0,1,.053.12.139.139,0,0,1-.043.1.2.2,0,0,1-.121.051l.168.194h-.131l-.156-.192h-.05v.192h-.11v-.513Zm-.127.1v.137h.126a.124.124,0,0,0,.069-.017.058.058,0,0,0,.026-.052.057.057,0,0,0-.026-.051.124.124,0,0,0-.069-.017Zm-9.172-3.942a2.637,2.637,0,1,1,2.642,2.788A2.613,2.613,0,0,1,419.594,292.423Zm-64,0v-4.355h-1.9v1.057a3.3,3.3,0,0,0-2.752-1.276,4.579,4.579,0,0,0,0,9.148,3.3,3.3,0,0,0,2.752-1.276v1.057h1.9Zm-7.052,0a2.637,2.637,0,1,1,2.642,2.788,2.613,2.613,0,0,1-2.642-2.788Z" transform="translate(-281.464 -277.448)" fill="#fff"/></svg>