<svg xmlns="http://www.w3.org/2000/svg" width="82.134" height="26.195" viewBox="0 0 82.134 26.195"><path d="M15.706-258a24.969,24.969,0,0,0-4.7,2.3c-.671,1-.563,1.43,1.1,5.415.412.953,1.235,2.946,1.841,4.441,3.357,8.21,4.657,11.2,5.047,11.632.78.888,1.82.671,6.455-1.235a30.631,30.631,0,0,0,4.722-2.253c.715-.736.65-1.625-.39-4.116l-.866-2.144,1.495.152a17.015,17.015,0,0,1,4.4,1.1c.347.152.368-.087.325-3.812l-.065-3.986-1.213-.412-1.213-.433-.866-1.95-.866-1.971-1.625.043a14.572,14.572,0,0,0-3.011.5c-.758.238-1.451.433-1.516.433a5.013,5.013,0,0,1-.736-1.473c-1.451-3.617-1.906-4.181-3.314-4.137A42.045,42.045,0,0,0,15.706-258Zm5.762-.671a33.294,33.294,0,0,1,2.188,4.917c-.043.022-.542.282-1.148.563a11.973,11.973,0,0,0-2.339,1.711l-1.256,1.191,1.386,3.358c.758,1.841,1.473,3.574,1.538,3.834.195.585.325.607,1.386.152a22.655,22.655,0,0,1,4.267-.953,8.5,8.5,0,0,1,1.3,2.513c1.04,2.448,1.04,2.491.628,2.9a79.487,79.487,0,0,1-9.076,3.9c-.5,0-.931-.78-2.383-4.332-1.538-3.726-4.917-11.935-5.87-14.21-.433-1.04-.52-1.43-.325-1.754.152-.282,1.668-1.04,4.4-2.188C20.3-258.8,20.969-259,21.467-258.673Z" transform="translate(-10.619 259.91)" fill="#fff"/><path d="M259.742-217.584c-.282.563-.087.931.52.931.628,0,.888-.52.52-.975C260.414-218.061,259.981-218.039,259.742-217.584Z" transform="translate(-205.681 227.031)" fill="#fff"/><path d="M156.284-216.805c-.087.108-.5,1.408-.975,2.881-.455,1.451-.888,2.881-.975,3.163-.152.477-.108.5.52.433.671-.065.715-.13,1.365-2.188a12.29,12.29,0,0,1,.78-2.1,12.284,12.284,0,0,1,.91,2.123c.693,1.863.823,2.1,1.3,2.1.455,0,.606-.238,1.278-2.123a12.429,12.429,0,0,1,.866-2.1,24.714,24.714,0,0,1,1.3,4.094c0,.13.347.238.758.238.866,0,.845.065.455-1.126-.173-.52-.628-1.971-1.018-3.271-.65-2.188-.736-2.318-1.278-2.318s-.65.173-1.408,2.166a12.849,12.849,0,0,1-.953,2.166,12.835,12.835,0,0,1-.953-2.166c-.736-1.906-.888-2.166-1.343-2.166A.86.86,0,0,0,156.284-216.805Z" transform="translate(-123.147 226.295)" fill="#fff"/><path d="M231-213.743v3.379h.671c.368,0,.607-.087.52-.217-.173-.282-.087-.282.866.108,2.318.975,4.2-2.014,2.513-4.007a1.517,1.517,0,0,0-1.56-.737,3.868,3.868,0,0,0-1.321.173c-.3.152-.368.022-.433-.888-.065-.953-.108-1.04-.65-1.1L231-217.1Zm3.509-.152a1.39,1.39,0,0,1,.282,1.776,1.3,1.3,0,0,1-2.4,0,1.01,1.01,0,0,1,.022-1.256C232.885-214.327,233.924-214.566,234.509-213.894Z" transform="translate(-183.264 226.373)" fill="#fff"/><path d="M271.152-216.848a15.124,15.124,0,0,0-.152,2.924c0,2.491.043,2.816.433,3.206.585.585,1.516.585,1.516,0a.637.637,0,0,0-.325-.563c-.26-.108-.325-.65-.325-2.924,0-2.773,0-2.794-.5-2.794A1.087,1.087,0,0,0,271.152-216.848Z" transform="translate(-214.599 226.295)" fill="#fff"/><path d="M310.173-216.82a16.917,16.917,0,0,0-.173,3.379v3.206h.65c.628,0,.65-.022.65-1.061,0-1.235.13-1.321,1.884-1.321,1.018,0,1.278-.087,1.82-.628a2.123,2.123,0,0,0-.3-3.271C314.181-216.82,310.412-217.1,310.173-216.82Zm3.769,1.321a1.1,1.1,0,0,1,.022,1.625c-.26.282-.65.39-1.516.39H311.3v-2.383h1.126A2.339,2.339,0,0,1,313.942-215.5Z" transform="translate(-245.151 226.245)" fill="#fff"/><path d="M203.86-208.671a2.8,2.8,0,0,0-1.538,2.1,2.633,2.633,0,0,0,4.159,2.318,2.892,2.892,0,0,0,.606-3.509A2.821,2.821,0,0,0,203.86-208.671Zm2.123,1.56a1.351,1.351,0,0,1-.542,2.1c-.542.3-.628.3-1.191-.108a1.472,1.472,0,0,1-.282-2.253A1.265,1.265,0,0,1,205.983-207.111Z" transform="translate(-160.781 219.915)" fill="#fff"/><path d="M284.357-208.716a2.7,2.7,0,0,0-.931.78,3.159,3.159,0,0,0-.108,3.1,2.826,2.826,0,0,0,2.578.975c.758-.13,1.841-.953,1.841-1.386,0-.325-.931-.26-1.43.108a1.36,1.36,0,0,1-1.819-.108c-.736-.736-.52-.866,1.516-.866,2.166,0,2.209-.043,1.646-1.408A2.55,2.55,0,0,0,284.357-208.716Zm1.928,1.256c.607.541.433.693-.845.693-1.018,0-1.191-.065-1.126-.368.087-.433,1.018-.975,1.343-.78A5.343,5.343,0,0,1,286.285-207.459Z" transform="translate(-223.971 219.96)" fill="#fff"/><path d="M340.349-208.312a2.591,2.591,0,0,0-.823,3.379,2.2,2.2,0,0,0,3.379.823c.325-.3.412-.3.715.022.5.5,1.191.455,1.191-.065a.684.684,0,0,0-.217-.563,5.464,5.464,0,0,1-.217-1.971v-1.841l-.91.022a13.3,13.3,0,0,1-1.69-.108A1.877,1.877,0,0,0,340.349-208.312Zm2.339,1.04a1.39,1.39,0,0,1,.282,1.776,1.248,1.248,0,0,1-2.339-.022,1.281,1.281,0,0,1,.347-1.8A1.253,1.253,0,0,1,342.689-207.272Z" transform="translate(-268.049 219.751)" fill="#fff"/><path d="M260-205.617v2.383h1.191V-208H260Z" transform="translate(-205.982 219.244)" fill="#fff"/><path d="M366.412-207.169c.217.52.65,1.495.975,2.209a8.378,8.378,0,0,1,.563,1.538c0,.347-.65.91-1.17,1a.616.616,0,0,0-.455.606c-.043.455.022.5.736.368,1.126-.173,1.625-.823,2.924-3.877l1.17-2.751h-.607c-.542,0-.671.152-1.148,1.343a4.159,4.159,0,0,1-.758,1.43c-.108.022-.455-.542-.758-1.3-.477-1.235-.607-1.365-1.213-1.43L366-208.1Z" transform="translate(-289.021 219.323)" fill="#fff"/></svg>