<svg xmlns="http://www.w3.org/2000/svg" width="13.48" height="17.397" viewBox="0 0 13.48 17.397"><path d="M8.866,2.007A2.444,2.444,0,0,0,8,2.1L6.97,2.4A3.273,3.273,0,0,0,4.728,4.7c-.646,2.443.092,5.335,2.008,8.59s4.094,5.318,6.561,5.99a3.342,3.342,0,0,0,3.146-.765l.781-.727a2.374,2.374,0,0,0,.3-3.133l-1.132-1.536a2.437,2.437,0,0,0-2.657-.88l-1.77.53c-.075.024-.255-.078-.408-.214a5.962,5.962,0,0,1-1.067-1.417,6.281,6.281,0,0,1-.7-1.519A.836.836,0,0,1,9.743,9.2a.21.21,0,0,1,.068-.129l0,0,1.318-1.206a2.358,2.358,0,0,0,.557-2.725l-.8-1.736A2.412,2.412,0,0,0,8.866,2.007Zm-.1,1.3a1.125,1.125,0,0,1,.938.635l.8,1.736a1.039,1.039,0,0,1-.251,1.22L8.931,8.106a1.526,1.526,0,0,0-.483.945v0a2.6,2.6,0,0,0,.078.894A7.44,7.44,0,0,0,9.366,11.8a6.887,6.887,0,0,0,1.335,1.74,1.713,1.713,0,0,0,1.628.483h0l1.777-.533a1.128,1.128,0,0,1,1.233.4l1.132,1.536a1.047,1.047,0,0,1-.136,1.4l-.785.727a2.052,2.052,0,0,1-1.913.466c-1.991-.544-3.962-2.311-5.78-5.4S5.472,6.985,5.988,5.031A1.988,1.988,0,0,1,7.34,3.655l1.03-.306A1.153,1.153,0,0,1,8.771,3.308Zm0,0" transform="translate(-4.499 -2)" fill="#fbd607"/></svg>