<svg xmlns="http://www.w3.org/2000/svg" width="81.693" height="26.194" viewBox="0 0 81.693 26.194"><path d="M205.427-259.367a9.631,9.631,0,0,0-7.435,5.07,5.805,5.805,0,0,0-.466,3.051c0,2.063.02,2.151.709,3.248a11.578,11.578,0,0,0,4.356,3.687c3.262,1.778,4.092,3.336,2.492,4.785-1.58,1.449-5.206,1.273-8.873-.417-.263-.11-.405.351-.851,2.546-.567,2.963-.587,2.875.75,3.27,6.037,1.822,12.114.549,14.586-3.095a7.447,7.447,0,0,0,1.378-4.609c.04-3.007-1.216-4.763-4.9-6.957-2.755-1.624-3.464-2.3-3.464-3.226,0-1.185,1.074-2,2.877-2.239a12.066,12.066,0,0,1,5.044.922c.648.351.547.593,1.2-2.721a12.811,12.811,0,0,0,.344-2.37,9.14,9.14,0,0,0-1.56-.527A16.629,16.629,0,0,0,205.427-259.367Z" transform="translate(-154.292 259.499)" fill="#fff"/><path d="M14.122-257.773c-.324.374-.1.7.567.836a28.393,28.393,0,0,1,4.9,1.826,2.4,2.4,0,0,1,1.479,1.474c.2.484,1.438,5.478,2.755,11.065l2.411,10.185h6.483l4.862-12.561c2.674-6.929,4.9-12.671,4.923-12.781a12.422,12.422,0,0,0-3.12-.132l-3.2.066-3.14,8.579c-2.37,6.489-3.16,8.469-3.282,8.139-.1-.242-.709-3.652-1.4-7.545-.669-3.916-1.357-7.391-1.54-7.743-.75-1.364-1.053-1.43-7.07-1.5A50.422,50.422,0,0,0,14.122-257.773Z" transform="translate(-13.975 258.207)" fill="#fff"/><path d="M148.485-257.8c-.061.132-1.236,5.872-2.613,12.757L143.4-232.482l3.039-.066,3.039-.066,2.492-12.537c1.357-6.906,2.472-12.6,2.492-12.713A23.7,23.7,0,0,0,148.485-257.8Z" transform="translate(-114.619 258.322)" fill="#fff"/><path d="M289.919-257.21c-1.3.286-1.58.858-6.341,13.2-2.512,6.514-4.578,11.883-4.578,11.949a21.307,21.307,0,0,0,3.12.11h3.12l.324-.946c.182-.506.446-1.32.608-1.8l.263-.88,3.91-.066c2.755-.044,3.971.022,4.072.2a14.571,14.571,0,0,1,.385,1.871l.263,1.628h5.652l-.1-.506c-.081-.264-1.134-5.744-2.37-12.147-1.236-6.426-2.309-11.883-2.39-12.169-.142-.462-.243-.484-2.715-.55A22.336,22.336,0,0,0,289.919-257.21Zm2.471,11.113c.425,2.267.831,4.357.891,4.621.1.506.1.506-2.451.506-1.965,0-2.532-.066-2.451-.286.041-.132.75-2.267,1.56-4.731a41.277,41.277,0,0,1,1.58-4.357C291.56-250.278,291.945-248.385,292.391-246.1Z" transform="translate(-219.023 257.766)" fill="#fff"/></svg>