<svg xmlns="http://www.w3.org/2000/svg" xmlns:xlink="http://www.w3.org/1999/xlink" version="1.1" width="511.626" height="511.626" fill="#FBD607" style="enable-background:new 0 0 511.626 511.626;" xml:space="preserve"><rect id="backgroundrect" width="100%" height="100%" x="0" y="0" fill="none" stroke="none"/>
















<g class="currentLayer" style=""><title>Layer 1</title><g id="svg_1">
	<path d="M475.366,71.949c-24.175-23.606-57.575-35.404-100.215-35.404c-11.8,0-23.843,2.046-36.117,6.136   c-12.279,4.093-23.702,9.615-34.256,16.562c-10.568,6.945-19.65,13.467-27.269,19.556c-7.61,6.091-14.845,12.564-21.696,19.414   c-6.854-6.85-14.087-13.323-21.698-19.414c-7.616-6.089-16.702-12.607-27.268-19.556c-10.564-6.95-21.985-12.468-34.261-16.562   c-12.275-4.089-24.316-6.136-36.116-6.136c-42.637,0-76.039,11.801-100.211,35.404C12.087,95.55,0,128.286,0,170.16   c0,12.753,2.24,25.891,6.711,39.398c4.471,13.514,9.566,25.031,15.275,34.546c5.708,9.514,12.181,18.792,19.414,27.834   c7.233,9.041,12.519,15.272,15.846,18.698c3.33,3.426,5.948,5.903,7.851,7.427L243.25,469.938   c3.427,3.426,7.614,5.144,12.562,5.144s9.138-1.718,12.563-5.144l177.87-171.31c43.588-43.58,65.38-86.406,65.38-128.472   C511.626,128.279,499.54,95.546,475.366,71.949z M421.405,271.795L255.813,431.391L89.938,271.507   C54.344,235.922,36.55,202.133,36.55,170.156c0-15.415,2.046-29.026,6.136-40.824c4.093-11.8,9.327-21.177,15.703-28.124   c6.377-6.949,14.132-12.607,23.268-16.988c9.141-4.377,18.086-7.328,26.84-8.85c8.754-1.52,18.079-2.281,27.978-2.281   c9.896,0,20.557,2.424,31.977,7.279c11.418,4.853,21.934,10.944,31.545,18.271c9.613,7.332,17.845,14.183,24.7,20.557   c6.851,6.38,12.559,12.229,17.128,17.559c3.424,4.189,8.091,6.283,13.989,6.283c5.9,0,10.562-2.094,13.99-6.283   c4.568-5.33,10.28-11.182,17.131-17.559c6.852-6.374,15.085-13.222,24.694-20.557c9.613-7.327,20.129-13.418,31.553-18.271   c11.416-4.854,22.08-7.279,31.977-7.279s19.219,0.761,27.977,2.281c8.757,1.521,17.702,4.473,26.84,8.85   c9.137,4.38,16.892,10.042,23.267,16.988c6.376,6.947,11.612,16.324,15.705,28.124c4.086,11.798,6.132,25.409,6.132,40.824   C475.078,202.133,457.19,236.016,421.405,271.795z" id="svg_2"/>
</g><g id="svg_3">
</g><g id="svg_4">
</g><g id="svg_5">
</g><g id="svg_6">
</g><g id="svg_7">
</g><g id="svg_8">
</g><g id="svg_9">
</g><g id="svg_10">
</g><g id="svg_11">
</g><g id="svg_12">
</g><g id="svg_13">
</g><g id="svg_14">
</g><g id="svg_15">
</g><g id="svg_16">
</g><g id="svg_17">
</g><path fill="" fill-opacity="1" stroke="none" stroke-opacity="1" stroke-width="1" stroke-dasharray="none" stroke-linejoin="miter" stroke-linecap="butt" stroke-dashoffset="" fill-rule="nonzero" opacity="1" marker-start="" marker-mid="" marker-end="" d="M281,214 C281,166.48618784530387 321.72375690607737,128 372,128 C422.27624309392263,128 463,166.48618784530387 463,214 C463,261.51381215469615 422.27624309392263,300 372,300 C321.72375690607737,300 281,261.51381215469615 281,214 Z" id="svg_18"/><path fill="" fill-opacity="1" stroke="none" stroke-opacity="1" stroke-width="1" stroke-dasharray="none" stroke-linejoin="miter" stroke-linecap="butt" stroke-dashoffset="" fill-rule="nonzero" opacity="1" marker-start="" marker-mid="" marker-end="" d="M340,156.5 C340,111.47237569060773 374.4585635359116,75 417,75 C459.5414364640884,75 494,111.47237569060773 494,156.5 C494,201.52762430939225 459.5414364640884,238 417,238 C374.4585635359116,238 340,201.52762430939225 340,156.5 Z" id="svg_20"/><path fill="" fill-opacity="1" stroke="none" stroke-opacity="1" stroke-width="1" stroke-dasharray="none" stroke-linejoin="miter" stroke-linecap="butt" stroke-dashoffset="" fill-rule="nonzero" opacity="1" marker-start="" marker-mid="" marker-end="" d="M111,245.5 C111,155.72099447513813 151.94751381215468,83 202.5,83 C253.05248618784532,83 294,155.72099447513813 294,245.5 C294,335.2790055248619 253.05248618784532,408 202.5,408 C151.94751381215468,408 111,335.2790055248619 111,245.5 Z" id="svg_22"/><path fill="" fill-opacity="1" stroke="none" stroke-opacity="1" stroke-width="1" stroke-dasharray="none" stroke-linejoin="miter" stroke-linecap="butt" stroke-dashoffset="" fill-rule="nonzero" opacity="1" marker-start="" marker-mid="" marker-end="" d="M284,78.5 C284,67.17403314917127 317.56353591160223,58 359,58 C400.43646408839777,58 434,67.17403314917127 434,78.5 C434,89.82596685082873 400.43646408839777,99 359,99 C317.56353591160223,99 284,89.82596685082873 284,78.5 Z" id="svg_24"/><path fill="" fill-opacity="1" stroke="none" stroke-opacity="1" stroke-width="1" stroke-dasharray="none" stroke-linejoin="miter" stroke-linecap="butt" stroke-dashoffset="" fill-rule="nonzero" opacity="1" marker-start="" marker-mid="" marker-end="" d="M239,164.5 C239,136.59944751381215 271.4447513812155,114 311.5,114 C351.5552486187845,114 384,136.59944751381215 384,164.5 C384,192.40055248618785 351.5552486187845,215 311.5,215 C271.4447513812155,215 239,192.40055248618785 239,164.5 Z" id="svg_26"/><path fill="" fill-opacity="1" stroke="none" stroke-opacity="1" stroke-width="1" stroke-dasharray="none" stroke-linejoin="miter" stroke-linecap="butt" stroke-dashoffset="" fill-rule="nonzero" opacity="1" marker-start="" marker-mid="" marker-end="" d="M293,113 C293,94.76795580110497 316.4944751381216,80 345.5,80 C374.5055248618784,80 398,94.76795580110497 398,113 C398,131.23204419889504 374.5055248618784,146 345.5,146 C316.4944751381216,146 293,131.23204419889504 293,113 Z" id="svg_28"/><path fill="" fill-opacity="1" stroke="none" stroke-opacity="1" stroke-width="1" stroke-dasharray="none" stroke-linejoin="miter" stroke-linecap="butt" stroke-dashoffset="" fill-rule="nonzero" opacity="1" marker-start="" marker-mid="" marker-end="" d="M260,116.5 C260,104.62154696132596 277.0055248618784,95 298,95 C318.9944751381216,95 336,104.62154696132596 336,116.5 C336,128.37845303867402 318.9944751381216,138 298,138 C277.0055248618784,138 260,128.37845303867402 260,116.5 Z" id="svg_30"/><path fill="" fill-opacity="1" stroke="none" stroke-opacity="1" stroke-width="1" stroke-dasharray="none" stroke-linejoin="miter" stroke-linecap="butt" stroke-dashoffset="" fill-rule="nonzero" opacity="1" marker-start="" marker-mid="" marker-end="" d="M73,116.5 C73,87.49447513812154 100.52209944751381,64 134.5,64 C168.47790055248618,64 196,87.49447513812154 196,116.5 C196,145.50552486187846 168.47790055248618,169 134.5,169 C100.52209944751381,169 73,145.50552486187846 73,116.5 Z" id="svg_32"/><path fill="" fill-opacity="1" stroke="none" stroke-opacity="1" stroke-width="1" stroke-dasharray="none" stroke-linejoin="miter" stroke-linecap="butt" stroke-dashoffset="" fill-rule="nonzero" opacity="1" marker-start="" marker-mid="" marker-end="" d="M30,151 C30,113.98342541436463 60.87845303867403,84 99,84 C137.12154696132598,84 168,113.98342541436463 168,151 C168,188.01657458563537 137.12154696132598,218 99,218 C60.87845303867403,218 30,188.01657458563537 30,151 Z" id="svg_34"/><path fill="" fill-opacity="1" stroke="none" stroke-opacity="1" stroke-width="1" stroke-dasharray="none" stroke-linejoin="miter" stroke-linecap="butt" stroke-dashoffset="" fill-rule="nonzero" opacity="1" marker-start="" marker-mid="" marker-end="" d="M59,96.5 C59,80.75414364640883 75.55801104972376,68 96,68 C116.44198895027624,68 133,80.75414364640883 133,96.5 C133,112.24585635359117 116.44198895027624,125 96,125 C75.55801104972376,125 59,112.24585635359117 59,96.5 Z" id="svg_36"/><path fill="" fill-opacity="1" stroke="none" stroke-opacity="1" stroke-width="1" stroke-dasharray="none" stroke-linejoin="miter" stroke-linecap="butt" stroke-dashoffset="" fill-rule="nonzero" opacity="1" marker-start="" marker-mid="" marker-end="" d="M22,197.5 C22,177.88674033149172 48.850828729281766,162 82,162 C115.14917127071823,162 142,177.88674033149172 142,197.5 C142,217.11325966850828 115.14917127071823,233 82,233 C48.850828729281766,233 22,217.11325966850828 22,197.5 Z" id="svg_38"/><path fill="" fill-opacity="1" stroke="none" stroke-opacity="1" stroke-width="1" stroke-dasharray="none" stroke-linejoin="miter" stroke-linecap="butt" stroke-dashoffset="" fill-rule="nonzero" opacity="1" marker-start="" marker-mid="" marker-end="" d="M23,219.5 C23,172.81491712707182 61.48618784530387,135 109,135 C156.51381215469613,135 195,172.81491712707182 195,219.5 C195,266.1850828729282 156.51381215469613,304 109,304 C61.48618784530387,304 23,266.1850828729282 23,219.5 Z" id="svg_40"/><path fill="" fill-opacity="1" stroke="none" stroke-opacity="1" stroke-width="1" stroke-dasharray="none" stroke-linejoin="miter" stroke-linecap="butt" stroke-dashoffset="" fill-rule="nonzero" opacity="1" marker-start="" marker-mid="" marker-end="" d="M226,285 C226,245.22099447513813 265.60497237569064,213 314.5,213 C363.39502762430936,213 403,245.22099447513813 403,285 C403,324.7790055248619 363.39502762430936,357 314.5,357 C265.60497237569064,357 226,324.7790055248619 226,285 Z" id="svg_42"/><path fill="" fill-opacity="1" stroke="none" stroke-opacity="1" stroke-width="1" stroke-dasharray="none" stroke-linejoin="miter" stroke-linecap="butt" stroke-dashoffset="" fill-rule="nonzero" opacity="1" marker-start="" marker-mid="" marker-end="" d="M193,369 C193,346.34806629834253 228.12983425414365,328 271.5,328 C314.87016574585635,328 350,346.34806629834253 350,369 C350,391.65193370165747 314.87016574585635,410 271.5,410 C228.12983425414365,410 193,391.65193370165747 193,369 Z" id="svg_44"/><path fill="" fill-opacity="1" stroke="none" stroke-opacity="1" stroke-width="1" stroke-dasharray="none" stroke-linejoin="miter" stroke-linecap="butt" stroke-dashoffset="" fill-rule="nonzero" opacity="1" marker-start="" marker-mid="" marker-end="" d="M212,409.5 C212,390.439226519337 230.1243093922652,375 252.5,375 C274.8756906077348,375 293,390.439226519337 293,409.5 C293,428.560773480663 274.8756906077348,444 252.5,444 C230.1243093922652,444 212,428.560773480663 212,409.5 Z" id="svg_46"/></g></svg>